<svg xmlns="http://www.w3.org/2000/svg" version="1.1" xmlns:xlink="http://www.w3.org/1999/xlink" xmlns:svgjs="http://svgjs.dev/svgjs" width="128" height="128" viewBox="0 0 128 128"><g transform="matrix(0.8046875,0,0,0.8046875,12.548166410490282,8.357379810855264)"><svg viewBox="0 0 87 95" data-background-color="#ffffff" preserveAspectRatio="xMidYMid meet" height="139" width="128" xmlns="http://www.w3.org/2000/svg" xmlns:xlink="http://www.w3.org/1999/xlink"><g id="tight-bounds" transform="matrix(1,0,0,1,-0.040684249637422454,-0.24049999999999727)"><svg viewBox="0 0 87.08136849927484 95.481" height="95.481" width="87.08136849927484"><g><svg viewBox="0 0 87.08136849927484 95.481" height="95.481" width="87.08136849927484"><g><svg viewBox="0 0 87.08136849927484 95.481" height="95.481" width="87.08136849927484"><g id="textblocktransform"><svg viewBox="0 0 87.08136849927484 95.481" height="95.481" width="87.08136849927484" id="textblock"><g><svg viewBox="0 0 87.08136849927484 95.481" height="95.481" width="87.08136849927484"><g><svg viewBox="0 0 87.08136849927484 95.481" height="95.481" width="87.08136849927484"><g><svg xmlns="http://www.w3.org/2000/svg" xmlns:xlink="http://www.w3.org/1999/xlink" version="1.1" x="0" y="0" viewBox="8.42 4.4459957770215155 83.16238699825747 91.18400422297847" enable-background="new 0 0 100 100.08" xml:space="preserve" height="95.481" width="87.08136849927484" class="icon-icon-0" data-fill-palette-color="accent" id="icon-0"><path d="M52.164 12.939c0.238 4.448 4.037 7.853 8.479 7.616 4.454-0.237 7.859-4.032 7.622-8.48-0.237-4.441-4.029-7.858-8.49-7.617C55.333 4.697 51.922 8.496 52.164 12.939z" fill="#ffa458" data-fill-palette-color="accent"></path><path d="M91.46 30.97l-3.47 17.31H87.97c-0.359 1.68-1.85 2.93-3.63 2.93-2.02 0-3.67-1.64-3.67-3.68 0-0.26 0.021-0.52 0.07-0.77l2.56-12.69 0.391-1.86-1.87-0.38-8.24-1.71 3.53 18.24c0.18 0.88 0.17 1.75 0 2.57L77.05 68.96l4.99 19.21c0.01 0.01 0.02 0.03 0.01 0.04l0.26 1c0.021 0.18 0.021 0.35 0.021 0.53 0 2.35-1.91 4.2-4.271 4.27-2.609 0.09-4.01-2.64-4.01-2.64L68.66 70.56c-0.101-0.35-0.16-0.71-0.16-1.079l0.06-12.12L59.16 69.78l-0.141 21.1c0.021 0.16 0.03 0.311 0.03 0.48 0 2.359-1.93 4.27-4.28 4.27-2.38 0-4.279-1.92-4.279-4.27L50.66 68.3c0.01-0.899 0.31-1.8 0.859-2.53l12-15.89L60.74 35.57 46.34 51.73c-0.7 0.84-1.75 1.38-2.91 1.38-2.06 0-3.75-1.69-3.75-3.75 0-1.03 0.41-1.94 1.08-2.61l0.03-0.03-2.01-1.83-2.13 2.31c-0.57 0.63-1.23 0.3-1.86-0.29-0.64-0.58-1.01-1.18-0.42-1.83l1.68-1.83L9.81 17.93l-1.39-3.24 3.36 1.11 27.28 24.19 1.68-1.82c0.58-0.63 1.23-0.3 1.87 0.29 0.63 0.57 1 1.2 0.42 1.83l-1.53 1.65 1.92 1.83L61.73 23.26c0 0 0.479-0.59 1.189-0.9 1.05-0.5 2.57-0.81 3.37-0.82 2.04-0.04 4.37 0.34 4.37 0.34l17.24 3.58c1.619 0.35 2.43 0.71 3.239 1.94C91.89 28.56 91.46 30.97 91.46 30.97z" fill="#ffa458" data-fill-palette-color="accent"></path></svg></g></svg></g></svg></g></svg></g></svg></g></svg></g><defs></defs></svg><rect width="87.08136849927484" height="95.481" fill="none" stroke="none" visibility="hidden"></rect></g></svg></g></svg>